<svg width="118" height="28" viewBox="0 0 118 28" fill="none" xmlns="http://www.w3.org/2000/svg">
<path d="M4.85314 0.341463H10.8177L10.6325 15.0244H11.0029L16.0043 0.341463H22.2652L17.412 27.6585H12.5959L15.1892 15.0244H14.8188L10.5584 27.6585H6.85367L7.03891 15.0244H6.66844L4.8161 27.6585H0L4.85314 0.341463Z" fill="black"/>
<path d="M21.052 12.6C22.3857 4.02927 25.6459 0 30.3879 0C34.7964 0 37.7602 3.65366 35.9819 13.2146L35.5744 15.4C34.2037 23.9707 30.9436 28 26.2016 28C21.83 28 18.8292 24.4146 20.6075 14.7854L21.052 12.6ZM25.3865 21.9561C25.2013 23.0829 25.7199 23.7317 26.6461 23.7317C27.5352 23.7317 28.128 23.1171 28.3503 21.9902L31.2029 5.87317C31.3881 4.74634 30.8695 4.09756 29.9433 4.09756C29.0542 4.09756 28.4614 4.71219 28.2391 5.83903L25.3865 21.9561Z" fill="black"/>
<path d="M36.8815 12.6C38.2152 4.02927 41.4753 0 46.2173 0C50.6259 0 53.5896 3.65366 51.8114 13.2146L51.4039 15.4C50.0331 23.9707 46.773 28 42.031 28C37.6595 28 34.6587 24.4146 36.4369 14.7854L36.8815 12.6ZM41.216 21.9561C41.0307 23.0829 41.5494 23.7317 42.4756 23.7317C43.3647 23.7317 43.9574 23.1171 44.1797 21.9902L47.0323 5.87317C47.2176 4.74634 46.6989 4.09756 45.7727 4.09756C44.8836 4.09756 44.2909 4.71219 44.0686 5.83903L41.216 21.9561Z" fill="black"/>
<path d="M52.7109 12.6C54.0446 4.02927 57.3047 0 62.0467 0C66.4553 0 69.4191 3.65366 67.6408 13.2146L67.2333 15.4C65.8626 23.9707 62.6024 28 57.8604 28C53.4889 28 50.4881 24.4146 52.2664 14.7854L52.7109 12.6ZM57.0454 21.9561C56.8602 23.0829 57.3788 23.7317 58.305 23.7317C59.1941 23.7317 59.7869 23.1171 60.0092 21.9902L62.8618 5.87317C63.047 4.74634 62.5283 4.09756 61.6022 4.09756C60.7131 4.09756 60.1203 4.71219 59.898 5.83903L57.0454 21.9561Z" fill="black"/>
<path d="M68.96 0.341463H81.9264L81.1485 4.78049H77.4438L73.3686 27.6585H67.8116L71.8867 4.78049H68.1821L68.96 0.341463Z" fill="black"/>
<path d="M82.5677 0.341463H88.1247L83.2716 27.6585H77.7145L82.5677 0.341463Z" fill="black"/>
<path d="M86.9072 12.6C88.2409 4.02927 91.501 0 96.243 0C100.652 0 103.615 3.65366 101.837 13.2146L101.43 15.4C100.059 23.9707 96.7988 28 92.0567 28C87.6852 28 84.6844 24.4146 86.4627 14.7854L86.9072 12.6ZM91.2417 21.9561C91.0565 23.0829 91.5751 23.7317 92.5013 23.7317C93.3904 23.7317 93.9832 23.1171 94.2055 21.9902L97.0581 5.87317C97.2433 4.74634 96.7247 4.09756 95.7985 4.09756C94.9094 4.09756 94.3166 4.71219 94.0943 5.83903L91.2417 21.9561Z" fill="black"/>
<path d="M105.034 0.341463H109.85L110.554 14H110.924L112.813 0.341463H118L113.147 27.6585H108.331L107.59 14H107.219L105.367 27.6585H100.18L105.034 0.341463Z" fill="black"/>
</svg>
